# xmcd
#
# Track frame offsets:
# 150
# 17209
# 34628
# 53476
# 68835
# 83048
# 96375
# 116391
# 134738
# 152293
# 173236
# 194053
#
# Disc length: 2867 seconds
#
# Revision: 0
# Processed by: cddbd v1.5.2PL0 Copyright (c) Steve Scherf et al.
# Submitted via: Axialis_AX_CDPlayer 2.6
#
DISCID=9b0b310c
DTITLE=Tim McGraw - Southern Voice
DYEAR=1900
DGENRE=
TTITLE0=Still
TTITLE1=Ghost Town Train
TTITLE2=Good Girls
TTITLE3=I Didn't Konw It At The Time
TTITLE4=It's A Business Doing Pleasure With You
TTITLE5=If I Died Today
TTITLE6=Mr. Whoever You Are
TTITLE7=Southern Voice
TTITLE8=You Had To Be There
TTITLE9=I'm Only Jesus
TTITLE10=Forever Seventeen
TTITLE11=Love You Goodbye
EXTD=www.timmcgraw.com
EXTT0=
EXTT1=
EXTT2=
EXTT3=
EXTT4=
EXTT5=
EXTT6=
EXTT7=
EXTT8=
EXTT9=
EXTT10=
EXTT11=
PLAYORDER=
